<svg width="100" height="100" viewBox="0 0 100 100" fill="none" xmlns="http://www.w3.org/2000/svg">
  <g opacity="0.2">
    <path fill-rule="evenodd" clip-rule="evenodd" d="M0 0H100V100H0V0ZM50 50C61.0457 50 70 41.0457 70 30C70 18.9543 61.0457 10 50 10C38.9543 10 30 18.9543 30 30C30 41.0457 38.9543 50 50 50ZM50 90C61.0457 90 70 81.0457 70 70C70 58.9543 61.0457 50 50 50C38.9543 50 30 58.9543 30 70C30 81.0457 38.9543 90 50 90Z" fill="url(#paint0_radial)"/>
  </g>
  <defs>
    <radialGradient id="paint0_radial" cx="0" cy="0" r="1" gradientUnits="userSpaceOnUse" gradientTransform="translate(50 50) rotate(90) scale(50)">
      <stop stop-color="white"/>
      <stop offset="1" stop-color="white" stop-opacity="0"/>
    </radialGradient>
  </defs>
</svg> 